# xmcd
#
# Track frame offsets:
#	150
#	16868
#	29389
#	50768
#	73906
#	100280
#	116471
#	134751
#	148304
#	169395
#	188601
#	211044
#	230063
#
# Disc length: 3295 seconds
#
# Revision: 0
# Processed by: cddbd v1.5.1PL0 Copyright (c) Steve Scherf et al.
# Submitted via: dBpowerAMP V4.0
#
DISCID=c50cdd0d
DTITLE=Bonny B - I got the blues
DYEAR=2005
DGENRE=Blues
TTITLE0=Born under a bad sign
TTITLE1=Messin' with the kid
TTITLE2=I got to find me a woman
TTITLE3=I'll play the blues for you
TTITLE4=I got the blues
TTITLE5=I wonder why
TTITLE6=Kansas city
TTITLE7=I'm a lonely man
TTITLE8=Who's been talkin'
TTITLE9=All your love
TTITLE10=Wang dang doodle
TTITLE11=You gonna cry
TTITLE12=Lucky's Boogie
EXTD=
EXTT0=
EXTT1=
EXTT2=
EXTT3=
EXTT4=
EXTT5=
EXTT6=
EXTT7=
EXTT8=
EXTT9=
EXTT10=
EXTT11=
EXTT12=
PLAYORDER=
